<mxfile host="65bd71144e">
    <diagram name="SmallAndExpand" id="SmallAndExpand">
        <mxGraphModel dx="443" dy="-721" grid="1" gridSize="10" guides="1" tooltips="1" connect="1" arrows="1" fold="1" page="1" pageScale="1" pageWidth="827" pageHeight="1169" math="0" shadow="0">
            <root>
                <mxCell id="0"/>
                <mxCell id="1" value="Connector" parent="0"/>
                <mxCell id="701" value="" style="rounded=0;whiteSpace=wrap;html=1;" vertex="1" parent="1">
                    <mxGeometry x="1070" y="1260" width="460" height="250" as="geometry"/>
                </mxCell>
                <mxCell id="700" value="rg-datascience-&amp;lt;company&amp;gt;-northeu-001" style="aspect=fixed;html=1;points=[];align=left;image;fontSize=12;image=img/lib/azure2/general/Resource_Groups.svg;labelPosition=right;verticalLabelPosition=middle;verticalAlign=middle;" vertex="1" parent="1">
                    <mxGeometry x="1060" y="1220" width="68" height="64" as="geometry"/>
                </mxCell>
                <mxCell id="702" value="Datascience Subscription" style="aspect=fixed;html=1;points=[];align=left;image;fontSize=12;image=img/lib/azure2/general/Subscriptions.svg;labelPosition=right;verticalLabelPosition=top;verticalAlign=bottom;" vertex="1" parent="1">
                    <mxGeometry x="1000" y="1189" width="44" height="71" as="geometry"/>
                </mxCell>
                <mxCell id="704" value="" style="rounded=0;whiteSpace=wrap;html=1;" vertex="1" parent="1">
                    <mxGeometry x="1140" y="1330" width="340" height="130" as="geometry"/>
                </mxCell>
                <mxCell id="703" value="vnet-datascience-&amp;lt;company&amp;gt;-001" style="aspect=fixed;html=1;points=[];align=left;image;fontSize=12;image=img/lib/azure2/networking/Virtual_Networks_Classic.svg;labelPosition=right;verticalLabelPosition=top;verticalAlign=bottom;" vertex="1" parent="1">
                    <mxGeometry x="1110" y="1310" width="67" height="40" as="geometry"/>
                </mxCell>
            </root>
        </mxGraphModel>
    </diagram>
</mxfile>